# xmcd
# Track frame offsets:
# 150
# 15737
# 35852
# 51490
# 74290
# 88835
# 107892
# 123332
# 141452
# 156395
# 169187
# 189662
# 203552
# 219062
# 234557
# 251947
# 267175
# 281327
#
# Disc length: 3987 seconds
# Revision: 0
# Processed by: cddbd v1.5PL3 Copyright (c) Steve Scherf et al.
# Submitted via: VisiTrax 2.9.6.190 - For more info visit www.synapsa.com
#
DISCID=150f9112
DTITLE=out of the Shadows - Linda Gail Lewis
DYEAR=2002
DGENRE=
TTITLE0=Baby,I´m in love
TTITLE1=everything I need
TTITLE2=love is real
TTITLE3=the sweetest love
TTITLE4=what a beautiful day
TTITLE5=out of the shadows
TTITLE6=treat me like a lady
TTITLE7=life without you
TTITLE8=paradise to me
TTITLE9=I´d rather stay home and rock ´n roll
TTITLE10=here ever after
TTITLE11=never wear mascare
TTITLE12=dark end of the street
TTITLE13=moore or les
TTITLE14=this long and lonely night
TTITLE15=baby,I want you
TTITLE16=dancin´´round and ´round
TTITLE17=relentless
EXTD=
EXTT0=
EXTT1=
EXTT2=
EXTT3=
EXTT4=
EXTT5=
EXTT6=
EXTT7=
EXTT8=
EXTT9=
EXTT10=
EXTT11=
EXTT12=
EXTT13=
EXTT14=
EXTT15=
EXTT16=
EXTT17=
PLAYORDER=
